<?xml version="1.0" encoding="utf-8"?>
<!-- Generator: Adobe Illustrator 19.0.0, SVG Export Plug-In . SVG Version: 6.00 Build 0)  -->
<svg version="1.1" id="Layer_1" xmlns="http://www.w3.org/2000/svg" xmlns:xlink="http://www.w3.org/1999/xlink" x="0px" y="0px"
	 viewBox="-285 408.9 24 24" style="enable-background:new -285 408.9 24 24;" xml:space="preserve">
<style type="text/css">
	.st0{fill:#FFFFFF;}
</style>
<path class="st0" d="M-284.7,421.8c-0.2-0.2-0.3-0.5-0.3-0.6s0.1-0.5,0.3-0.6l1.3-1.3c0.4-0.4,0.9-0.4,1.3,0l0.1,0.1l5.1,5.4
	c0.2,0.2,0.5,0.2,0.6,0l12.4-12.8h0.1l0,0c0.4-0.4,0.9-0.4,1.3,0l1.3,1.3c0.4,0.4,0.4,0.9,0,1.3l-14.8,15.3
	c-0.2,0.2-0.4,0.3-0.6,0.3c-0.3,0-0.5-0.1-0.6-0.3l-7.2-7.8L-284.7,421.8L-284.7,421.8z"/>
</svg>
