<?xml version="1.0" encoding="utf-8"?>
<!-- Generator: Adobe Illustrator 19.0.0, SVG Export Plug-In . SVG Version: 6.00 Build 0)  -->
<svg version="1.1" xmlns="http://www.w3.org/2000/svg" xmlns:xlink="http://www.w3.org/1999/xlink" x="0px" y="0px"
	 viewBox="-285 408.9 24 24" style="enable-background:new -285 408.9 24 24;" xml:space="preserve">
<style type="text/css">
	.st0{display:none;}
	.st1{display:inline;fill:#FFFFFF;}
	.st2{display:inline;fill:#FF00B8;}
	.st3{fill:#FFFFFF;}
</style>
<g id="Layer_4" class="st0">
	<path class="st1" d="M-262.1,430.5l-5.6-5.8c1.4-1.7,2.2-3.8,2.2-6.1c0-5.2-4.2-9.4-9.4-9.4c-5.2,0-9.4,4.2-9.4,9.4
		c0,5.2,4.2,9.4,9.4,9.4c2,0,3.8-0.6,5.4-1.7l5.6,5.8c0.2,0.2,0.5,0.4,0.9,0.4c0.3,0,0.6-0.1,0.9-0.3
		C-261.6,431.7-261.6,431-262.1,430.5z M-274.8,411.7c3.8,0,7,3.1,7,7c0,3.8-3.1,7-7,7c-3.8,0-7-3.1-7-7
		C-281.8,414.8-278.7,411.7-274.8,411.7z"/>
</g>
<g id="Layer_2" class="st0">
	<circle class="st2" cx="-273" cy="420.9" r="12"/>
</g>
<g id="Layer_3">
	<path class="st3" d="M-278.3,420.9c0,2.9,2.4,5.3,5.3,5.3s5.3-2.4,5.3-5.3s-2.4-5.3-5.3-5.3S-278.3,417.9-278.3,420.9z
		 M-271.2,418.3c0.5,0,0.9,0.4,0.9,0.9c0,0.5-0.4,0.9-0.9,0.9c-0.5,0-0.9-0.4-0.9-0.9C-272,418.7-271.6,418.3-271.2,418.3z
		 M-274.8,418.3c0.5,0,0.9,0.4,0.9,0.9c0,0.5-0.4,0.9-0.9,0.9c-0.5,0-0.9-0.4-0.9-0.9C-275.7,418.7-275.3,418.3-274.8,418.3z
		 M-275.8,421.2c0.3,0,0.6,0.2,0.6,0.5c0.1,0.5,0.3,1,0.7,1.3c0.4,0.3,0.9,0.5,1.4,0.5c0.5,0,1-0.2,1.4-0.5c0.4-0.3,0.7-0.8,0.7-1.3
		c0-0.3,0.3-0.5,0.6-0.5c0.3,0,0.5,0.3,0.5,0.6c-0.1,0.8-0.5,1.5-1.1,2c-0.6,0.5-1.4,0.8-2.2,0.8c-0.8,0-1.6-0.3-2.2-0.8
		c-0.6-0.5-1-1.2-1.1-2C-276.3,421.6-276.1,421.3-275.8,421.2z"/>
</g>
<g id="Layer_1" class="st0">
	<path class="st1" d="M-273,426.4l-0.8-0.8c-3.1-2.8-5.2-4.7-5.2-6.9c0-1.9,1.4-3.3,3.3-3.3c1,0,2.1,0.5,2.7,1.3
		c0.7-0.8,1.7-1.3,2.7-1.3c1.9,0,3.3,1.4,3.3,3.3c0,2.3-2.1,4.2-5.2,6.9L-273,426.4z"/>
</g>
</svg>
