<?xml version="1.0" encoding="utf-8"?>
<!-- Generator: Adobe Illustrator 19.0.0, SVG Export Plug-In . SVG Version: 6.00 Build 0)  -->
<svg version="1.1" id="Layer_1" xmlns="http://www.w3.org/2000/svg" xmlns:xlink="http://www.w3.org/1999/xlink" x="0px" y="0px"
	 viewBox="-370 323.9 194 194" style="enable-background:new -370 323.9 194 194;" xml:space="preserve">
<style type="text/css">
	.st0{fill:#DCF0FF;}
	.st1{fill:#92B5EC;}
</style>
<g>
	<circle class="st0" cx="-273" cy="421.3" r="96.3"/>
	<path class="st1" d="M-273,421.3c6.9,0,12.6-6.8,12.6-15.3c0-8.4-1.8-15.3-12.6-15.3s-12.6,6.8-12.6,15.3
		C-285.6,414.5-279.9,421.3-273,421.3z"/>
	<path d="M-296.7,444.6C-296.7,444.1-296.7,444.5-296.7,444.6L-296.7,444.6z"/>
	<path d="M-249.3,445C-249.3,444.9-249.3,444-249.3,445L-249.3,445z"/>
	<path class="st1" d="M-249.3,444c-0.2-14.7-2.1-18.9-16.8-21.5c0,0-2.1,2.6-6.9,2.6c-4.8,0-6.9-2.6-6.9-2.6
		c-14.5,2.6-16.5,6.7-16.8,21c0,1.2,0,1.2,0,1.1c0,0.3,0,0.7,0,1.5c0,0,3.5,7,23.7,7c20.2,0,23.7-7,23.7-7c0-0.5,0-0.9,0-1.1
		C-249.3,445.1-249.3,444.9-249.3,444z"/>
</g>
</svg>
